<svg xmlns="http://www.w3.org/2000/svg" version="1.1" xmlns:xlink="http://www.w3.org/1999/xlink" xmlns:svgjs="http://svgjs.dev/svgjs" width="31" height="33"><svg width="31" height="33" viewBox="0 0 31 33" fill="none" xmlns="http://www.w3.org/2000/svg">
<path d="M26.3137 28.3237C25.1861 29.4506 23.6568 30.0843 22.0629 30.0856H13.338C12.7839 30.0856 12.3351 29.6368 12.3351 29.0827C12.3351 28.5286 12.7839 28.0798 13.338 28.0798H22.0629C24.2804 28.0798 26.078 26.2816 26.0774 24.064C26.0774 22.9985 25.6537 21.9762 24.8997 21.2234C24.145 20.475 23.1253 20.0557 22.0629 20.057H14.1002C13.5461 20.057 13.0973 19.6082 13.0973 19.0541C13.0973 18.5 13.5461 18.0513 14.1002 18.0513H22.0629C23.663 18.0513 25.1742 18.6743 26.3175 19.8056C28.6686 22.1586 28.6673 25.972 26.3137 28.3237Z" fill="white"></path>
<path d="M6.01714 17.0483C2.69831 17.0483 0 19.7473 0 23.0655C0 27.3696 4.22391 32.0912 6.01714 32.0912C7.81037 32.0912 12.0343 27.3696 12.0343 23.0655C12.0343 19.7473 9.33534 17.0483 6.01714 17.0483ZM6.01714 25.0712C4.90961 25.0963 3.99137 24.2188 3.9663 23.1112C3.94123 22.0037 4.81873 21.0861 5.92626 21.061C5.95634 21.0604 5.9858 21.0604 6.01589 21.061C7.12342 21.0855 8.00092 22.0031 7.97647 23.1106C7.95328 24.183 7.08957 25.0468 6.01714 25.0712Z" fill="#009DFF"></path>
<path d="M16.4957 9.02581C16.4957 9.57989 16.047 10.0287 15.4929 10.0287H9.02446C7.95767 10.028 6.93476 10.4505 6.17948 11.2033C5.43048 11.9573 5.01116 12.9777 5.01304 14.0401C5.0895 14.5885 4.70591 15.1363 4.15747 15.2128C4.10796 15.2197 4.05656 15.2235 4.00642 15.2235H4.00516C3.51941 15.2228 3.09633 14.895 3.02738 14.3992C3.01234 14.2802 3.00544 14.1604 3.00732 14.0401C3.00732 12.4399 3.63035 10.9281 4.76107 9.78485C5.89242 8.65538 7.42553 8.02107 9.02446 8.02295H15.4929C16.047 8.02295 16.4957 8.47173 16.4957 9.02581Z" fill="white"></path>
<path d="M24.0686 0C20.7498 0 18.0515 2.69894 18.0515 6.01714C18.0515 10.3213 22.2754 15.0429 24.0686 15.0429C25.8618 15.0429 30.0857 10.3213 30.0857 6.01714C30.0857 2.69894 27.3868 0 24.0686 0ZM24.0686 8.02286C22.9611 8.04793 22.0428 7.17043 22.0178 6.0629C21.9927 4.95537 22.8702 4.03775 23.9777 4.01268C24.0078 4.01205 24.0373 4.01205 24.0673 4.01268C25.1749 4.03713 26.0524 4.95474 26.0279 6.06227C26.0047 7.1347 25.141 7.99841 24.0686 8.02286Z" fill="#EF7237"></path>
</svg><style>@media (prefers-color-scheme: light) { :root { filter: contrast(1) brightness(0.6); } }
@media (prefers-color-scheme: dark) { :root { filter: none; } }
</style></svg>